<svg width="16" height="16" viewBox="0 0 16 16" fill="none" xmlns="http://www.w3.org/2000/svg">
<path d="M12.5571 13.5209C12.644 13.608 12.7663 13.6546 12.8769 13.6546C13.1094 13.6546 13.3246 13.4452 13.3246 13.2066C13.3246 13.0903 13.278 12.974 13.1909 12.8866L3.46057 3.16259C3.41832 3.1212 3.36829 3.08858 3.31336 3.06661C3.25844 3.04464 3.19972 3.03376 3.14057 3.03459C2.908 3.03459 2.69286 3.24402 2.69286 3.47659C2.69286 3.59888 2.73371 3.71516 2.82086 3.79659L12.5571 13.5209ZM13.1037 11.8749C14.93 10.6943 16 9.15888 16 8.4783C16 7.29773 12.7723 3.53459 8.00286 3.53459C7.01429 3.53459 6.08943 3.70316 5.24029 3.9823L6.75829 5.49459C7.15129 5.32511 7.57487 5.23798 8.00286 5.23859C9.80571 5.23859 11.2543 6.66373 11.2543 8.4783C11.2543 8.9203 11.1611 9.34487 10.9806 9.71716L13.1037 11.8749ZM8.00286 13.422C9.07886 13.422 10.0791 13.23 10.9749 12.916L9.43371 11.3746C8.99131 11.6024 8.50047 11.7201 8.00286 11.7177C6.18857 11.7177 4.75171 10.2463 4.74571 8.4783C4.74571 7.95488 4.868 7.46059 5.08914 7.02402L3.06514 4.98859C1.14571 6.16916 0 7.7803 0 8.4783C0 9.65316 3.286 13.422 8.00286 13.422ZM9.85229 8.3563C9.85259 8.1136 9.80492 7.87324 9.71202 7.64902C9.61912 7.42481 9.48281 7.22116 9.31095 7.0498C9.13908 6.87844 8.93504 6.74274 8.71055 6.65049C8.48606 6.55825 8.24556 6.51129 8.00286 6.5123C7.92743 6.5123 7.85143 6.51802 7.782 6.52402L9.84086 8.58288C9.84657 8.51316 9.85229 8.43202 9.85229 8.3563ZM6.14771 8.3443C6.14771 9.36773 6.99086 10.1937 8.00886 10.1937C8.09029 10.1937 8.166 10.188 8.24714 10.1823L6.15914 8.09402C6.15343 8.17545 6.14771 8.26259 6.14771 8.3443Z" fill="#BBBDC7"/>
</svg>
