<svg width="166" height="208" viewBox="0 0 166 208" fill="none" xmlns="http://www.w3.org/2000/svg">
<path d="M20.75 0C15.2468 0 9.96891 2.18615 6.07753 6.07753C2.18615 9.96891 0 15.2468 0 20.75V186.75C0 192.253 2.18615 197.531 6.07753 201.422C9.96891 205.314 15.2468 207.5 20.75 207.5H145.25C150.753 207.5 156.031 205.314 159.922 201.422C163.814 197.531 166 192.253 166 186.75V62.25L103.75 0M93.375 15.5625L150.438 72.625H93.375M51.1488 106.033H124.5V179.384L102.505 157.389L73.1438 186.75L43.7825 157.389L73.1438 128.131" fill="black"/>
</svg>
