<svg width="15" height="15" viewBox="0 0 15 15" fill="none" xmlns="http://www.w3.org/2000/svg">
<path fill-rule="evenodd" clip-rule="evenodd" d="M4.21875 5.00002C4.21766 4.20063 4.50843 3.42834 5.03645 2.82816C5.56448 2.22799 6.29344 1.84121 7.08646 1.74046C7.87947 1.63971 8.68199 1.83193 9.34332 2.281C10.0046 2.73008 10.4793 3.40513 10.6781 4.1794C10.7119 4.29664 10.7901 4.39609 10.896 4.45662C11.002 4.51714 11.1273 4.53398 11.2455 4.50355C11.3636 4.47311 11.4653 4.39781 11.5288 4.29363C11.5923 4.18946 11.6127 4.06462 11.5856 3.94565C11.3296 2.95071 10.7193 2.08339 9.86922 1.50643C9.01917 0.929474 7.9878 0.682528 6.96863 0.811929C5.94945 0.94133 5.01252 1.43818 4.33362 2.20927C3.65473 2.98035 3.28053 3.97266 3.28125 5.00002V6.2844C2.58438 6.33627 2.13125 6.46752 1.79937 6.7994C1.25 7.34815 1.25 8.23252 1.25 10C1.25 11.7675 1.25 12.6519 1.79937 13.2006C2.34812 13.75 3.2325 13.75 5 13.75H10C11.7675 13.75 12.6519 13.75 13.2006 13.2006C13.75 12.6519 13.75 11.7675 13.75 10C13.75 8.23252 13.75 7.34815 13.2006 6.7994C12.6519 6.25002 11.7675 6.25002 10 6.25002H5C4.7175 6.25002 4.45812 6.25002 4.21875 6.25252V5.00002ZM5 10.625C5.16576 10.625 5.32473 10.5592 5.44194 10.442C5.55915 10.3248 5.625 10.1658 5.625 10C5.625 9.83426 5.55915 9.67529 5.44194 9.55808C5.32473 9.44087 5.16576 9.37502 5 9.37502C4.83424 9.37502 4.67527 9.44087 4.55806 9.55808C4.44085 9.67529 4.375 9.83426 4.375 10C4.375 10.1658 4.44085 10.3248 4.55806 10.442C4.67527 10.5592 4.83424 10.625 5 10.625ZM7.5 10.625C7.66576 10.625 7.82473 10.5592 7.94194 10.442C8.05915 10.3248 8.125 10.1658 8.125 10C8.125 9.83426 8.05915 9.67529 7.94194 9.55808C7.82473 9.44087 7.66576 9.37502 7.5 9.37502C7.33424 9.37502 7.17527 9.44087 7.05806 9.55808C6.94085 9.67529 6.875 9.83426 6.875 10C6.875 10.1658 6.94085 10.3248 7.05806 10.442C7.17527 10.5592 7.33424 10.625 7.5 10.625ZM10.625 10C10.625 10.1658 10.5592 10.3248 10.4419 10.442C10.3247 10.5592 10.1658 10.625 10 10.625C9.83424 10.625 9.67527 10.5592 9.55806 10.442C9.44085 10.3248 9.375 10.1658 9.375 10C9.375 9.83426 9.44085 9.67529 9.55806 9.55808C9.67527 9.44087 9.83424 9.37502 10 9.37502C10.1658 9.37502 10.3247 9.44087 10.4419 9.55808C10.5592 9.67529 10.625 9.83426 10.625 10Z" fill="#BBBDC7"/>
</svg>
