<svg width="286" height="207" viewBox="0 0 286 207" fill="none" xmlns="http://www.w3.org/2000/svg">
<g clip-path="url(#clip0_179_579)">
<path d="M47.9924 198.701C47.7632 198.711 47.5364 198.651 47.3426 198.527C47.1488 198.404 46.9973 198.224 46.9088 198.011C46.8204 197.799 46.7991 197.564 46.8478 197.338C46.8966 197.113 47.0131 196.908 47.1816 196.752L47.2582 196.446C47.2481 196.421 47.238 196.397 47.2278 196.372C46.9969 195.824 46.6101 195.357 46.1159 195.029C45.6216 194.701 45.0421 194.528 44.4499 194.53C43.8578 194.532 43.2795 194.71 42.7877 195.042C42.2959 195.373 41.9126 195.843 41.6858 196.393C40.7793 198.587 39.6253 200.784 39.3412 203.104C39.216 204.129 39.2688 205.169 39.4972 206.176C37.3683 201.509 36.2628 196.436 36.2556 191.302C36.2552 190.014 36.3264 188.727 36.469 187.446C36.5868 186.397 36.7503 185.355 36.9594 184.32C38.1004 178.706 40.5504 173.444 44.1079 168.966C45.8298 168.022 47.2223 166.57 48.0977 164.806C48.4149 164.172 48.6391 163.495 48.7633 162.796C48.569 162.822 48.0309 159.849 48.1774 159.667C47.9067 159.254 47.4222 159.049 47.1266 158.646C45.6563 156.643 43.6306 156.993 42.5731 159.715C40.3141 160.861 40.2922 162.761 41.6784 164.588C42.5602 165.751 42.6814 167.325 43.4552 168.569C43.3756 168.672 43.2928 168.771 43.2132 168.873C41.758 170.754 40.4896 172.773 39.4264 174.902C39.685 172.517 39.3764 170.104 38.526 167.862C37.6641 165.773 36.0487 164.013 34.6262 162.207C32.9174 160.037 29.4135 160.984 29.1124 163.734C29.1095 163.761 29.1067 163.787 29.1039 163.814C29.3152 163.934 29.522 164.061 29.7244 164.196C29.9787 164.366 30.1757 164.61 30.2896 164.895C30.4036 165.18 30.4291 165.494 30.363 165.794C30.2969 166.094 30.1421 166.366 29.919 166.577C29.6958 166.787 29.4148 166.924 29.1126 166.971L29.0816 166.976C29.1569 167.741 29.29 168.5 29.4796 169.245C27.6547 176.337 31.5947 178.921 37.2204 179.037C37.3446 179.101 37.4657 179.165 37.5899 179.225C36.5216 182.268 35.8516 185.437 35.5965 188.653C35.4521 190.55 35.4606 192.456 35.622 194.352L35.6124 194.285C35.2048 192.177 34.0857 190.274 32.4441 188.899C30.0059 186.886 26.5612 186.145 23.9309 184.527C23.6513 184.347 23.3263 184.251 22.9941 184.25C22.6619 184.249 22.3364 184.344 22.056 184.523C21.7755 184.702 21.5519 184.957 21.4114 185.26C21.271 185.563 21.2195 185.899 21.2631 186.23C21.2667 186.254 21.2703 186.277 21.2739 186.301C21.666 186.461 22.0478 186.646 22.417 186.854C22.6283 186.974 22.8352 187.101 23.0375 187.236C23.2918 187.406 23.4888 187.65 23.6027 187.936C23.7166 188.221 23.7422 188.534 23.6761 188.834C23.6099 189.134 23.4552 189.407 23.2321 189.617C23.0089 189.827 22.7279 189.964 22.4257 190.011L22.3947 190.016C22.3724 190.019 22.3533 190.022 22.3311 190.026C23.001 191.633 23.9414 193.113 25.1109 194.4C26.252 200.592 31.1531 201.179 36.3957 199.376H36.3989C36.9741 201.888 37.8076 204.333 38.8858 206.672H47.7698C47.8016 206.573 47.8303 206.471 47.8589 206.371C47.0366 206.423 46.2111 206.374 45.4007 206.224C46.0598 205.411 46.719 204.592 47.3781 203.779C47.3928 203.764 47.4066 203.748 47.4195 203.731C47.7539 203.315 48.0914 202.902 48.4257 202.486L48.4259 202.486C48.4437 201.211 48.2978 199.938 47.9924 198.701Z" fill="#F2F2F2"/>
<path d="M58.2109 206.472H72.5468C74.9987 198.175 72.5599 178.568 75.7917 170.553C81.9921 155.187 89.9131 138.974 104.697 131.471C111.01 128.267 117.893 127.016 124.922 127.084C134.632 127.176 144.615 129.796 153.754 133.267C157.493 134.684 161.198 136.242 164.888 137.834C178.79 143.838 192.541 150.377 207.491 152.144C226.409 154.379 248.651 145.873 253.818 127.551C257.762 113.524 250.659 98.9608 243.211 86.433C235.763 73.9053 227.437 60.5011 228.797 45.9966C228.802 45.9479 228.807 45.8944 228.817 45.8457C229.329 40.6359 232.424 36.8918 236.748 34.4915H217.922C217.674 48.0222 225.463 59.9656 232.473 71.7581C239.921 84.281 247.023 98.8488 243.08 112.876C237.913 131.193 195.128 109.722 176.21 107.482C170.867 106.854 179.354 109.089 174.26 107.482C166.271 104.965 165.385 128.053 157.61 124.664C152.77 122.551 147.924 120.452 143.016 118.587C140.983 117.813 138.907 117.088 136.806 116.416C136.804 116.416 136.802 116.415 136.8 116.414C136.799 116.414 136.797 116.412 136.796 116.411C122.689 111.922 107.261 110.174 94.2271 116.664C94.1393 116.708 94.0467 116.752 93.9589 116.796C79.1746 124.294 71.2536 140.507 65.0532 155.874C59.9301 168.577 60.7359 193.073 58.2109 206.472Z" fill="#F2F2F2"/>
<path d="M143.19 206.047C73.2256 207.536 71.6914 176.737 71.6914 140.103C71.6914 103.47 103.596 74.8119 143.132 74.8119C182.668 74.8119 214.067 103.459 214.067 140.092C214.067 176.725 182.726 206.047 143.19 206.047Z" fill="white"/>
<path d="M142.792 206.448C72.8271 207.937 71.293 177.138 71.293 140.504C71.293 103.87 103.458 74.0676 142.994 74.0676C182.53 74.0676 214.694 103.871 214.694 140.504C214.694 177.137 182.328 206.448 142.792 206.448ZM142.994 75.8957C104.545 75.8957 73.9134 104.884 73.2659 140.504C72.6637 173.635 110.649 214.978 142.994 205.113C160.339 187.412 209.381 168.347 212.722 140.504C216.97 105.097 181.442 75.8957 142.994 75.8957Z" fill="#3F3D56"/>
<path d="M2.09934e-06 206.523C-0.000183635 206.586 0.0119567 206.648 0.0357246 206.706C0.0594926 206.764 0.0944191 206.817 0.138495 206.861C0.182571 206.905 0.234926 206.94 0.292549 206.964C0.350171 206.988 0.411924 207 0.474255 207H285.526C285.652 207 285.772 206.95 285.861 206.86C285.95 206.771 286 206.65 286 206.523C286 206.397 285.95 206.276 285.861 206.186C285.772 206.097 285.652 206.047 285.526 206.047H0.474255C0.411925 206.047 0.350173 206.059 0.292551 206.083C0.234928 206.107 0.182574 206.142 0.138498 206.186C0.0944229 206.23 0.0594964 206.283 0.0357279 206.341C0.0119593 206.399 -0.000182048 206.461 2.09934e-06 206.523Z" fill="#CCCCCC"/>
<path d="M192.072 200.424H187.15L184.808 181.342L192.073 181.343L192.072 200.424Z" fill="#A0616A"/>
<path d="M192.246 205.584L177.108 205.584V205.391C177.109 203.821 177.729 202.315 178.834 201.205C179.939 200.094 181.438 199.471 183 199.471L185.766 197.362L190.924 199.471L192.246 199.471L192.246 205.584Z" fill="#2F2E41"/>
<path d="M184.593 156.194C178.972 150.708 172.512 146.164 165.459 142.733L161.862 146.814L164.153 142.113C154.713 137.78 144.466 135.512 134.088 135.457C123.711 135.402 113.44 137.561 103.956 141.793L105.825 145.872L102.955 142.247C95.546 145.71 88.766 150.395 82.8954 156.106C82.2919 156.672 81.9191 157.442 81.8494 158.268C81.8192 158.717 81.8853 159.167 82.0432 159.588C82.2011 160.009 82.4471 160.391 82.7646 160.708C83.6691 161.138 84.958 162.126 86.8731 164.836C87.4604 165.418 88.2506 165.747 89.0755 165.752C89.9003 165.757 90.6946 165.438 91.289 164.864C102.662 153.8 117.871 147.614 133.699 147.614C149.528 147.614 164.737 153.8 176.11 164.864C176.704 165.438 177.498 165.757 178.323 165.752C179.148 165.747 179.938 165.418 180.526 164.836C182.453 163.094 182.903 160.632 184.559 160.783C185.142 160.217 185.495 159.453 185.552 158.64C185.576 158.187 185.503 157.734 185.338 157.312C185.172 156.89 184.918 156.508 184.593 156.194Z" fill="#1924F2"/>
<path d="M147.063 162.132L142.141 162.131L139.799 143.05L147.064 143.051L147.063 162.132Z" fill="#A0616A"/>
<path d="M147.236 167.292L132.099 167.292V167.099C132.099 165.529 132.72 164.023 133.825 162.912C134.93 161.802 136.428 161.178 137.991 161.178L140.756 159.07L145.915 161.178L147.237 161.179L147.236 167.292Z" fill="#2F2E41"/>
<path d="M197.7 91.8795L162.767 95.5474L154.183 104.071L140.53 108.551C138.811 109.115 137.304 110.193 136.211 111.641C135.118 113.089 134.492 114.838 134.415 116.654C134.059 125.022 133.357 138.916 132.616 138.771C131.556 138.563 133.675 143.769 135.159 143.467C136.644 143.165 138.187 146.56 137.161 147.163C136.135 147.767 137.844 152.931 137.844 152.931L148.537 151.199C149.876 141.053 154.764 130.359 149.003 122.894C158.76 119.712 167.356 117.051 173.676 115.411L177.095 113.985L184.192 189.771L194.229 189.937C196.999 175.619 198.39 162.733 196.225 153.54C196.225 153.54 196.536 125.923 197.723 126.225C198.91 126.527 197.904 122.93 197.904 122.93C197.904 122.93 196.864 119.865 198.142 118.594C199.419 117.323 198.621 109.847 198.621 109.847C200.732 102.772 200.097 96.9302 197.7 91.8795Z" fill="#2F2E41"/>
<path d="M201.831 76.4155C202.176 74.8561 202.522 73.2967 202.868 71.7371C203.84 67.37 204.81 63.0049 205.779 58.6417C207.051 52.9249 208.328 47.0091 207.234 41.2563C207.07 40.3912 206.84 39.5399 206.547 38.7099C204.909 34.0006 201.291 29.874 196.493 29.005L195.71 26.0698L185.004 24.7455L182.978 27.5536C178.617 27.2032 176.028 31.5671 173.02 35.1633L171.825 36.3648C170.953 37.4599 170.775 41.5739 170.231 42.7727C167.811 48.103 171.145 42.9229 171.028 48.78C170.906 54.8496 169.719 60.7393 169.597 66.8084C169.584 67.4597 168.189 67.9561 167.949 69.0979C167.82 69.7141 168.9 70.8572 168.736 71.5462C168.597 72.1342 169.295 74.4974 169.145 75.1052C168.45 77.9247 166.876 79.0349 166.807 80.4251C166.776 80.9602 166.696 81.4913 166.57 82.012C166.484 82.3816 165.277 81.9388 165.16 82.3141C164.962 82.9446 165.831 84.3966 165.593 85.0278C165.132 86.2493 165.442 88.4067 165.16 89.5229C163.975 94.2091 164.43 92.3495 161.862 96.4385C168.435 98.4354 171.274 105.123 178.035 106.327C178.34 105.337 178.644 104.345 178.947 103.35C179.843 103.408 180.745 103.462 181.647 103.511C181.697 104.375 181.748 105.239 181.799 106.098C188.653 106.542 195.527 106.58 202.385 106.211C202.155 105.518 201.972 104.811 201.836 104.094C201.459 102.1 202.268 99.9369 202.355 97.963C202.416 96.5007 201.724 95.2581 201.744 93.6831C201.749 93.3918 203.377 93.1466 203.372 92.8497C203.347 90.2317 201.866 86.7289 202.355 84.157C202.863 81.5135 201.251 79.0441 201.831 76.4163L201.831 76.4155Z" fill="#3F3D56"/>
<path d="M151.756 13.1782C150.848 13.1793 149.978 13.5421 149.336 14.1871C148.694 14.8321 148.333 15.7066 148.332 16.6187V37.3496C148.333 38.2618 148.694 39.1362 149.336 39.7812C149.978 40.4262 150.848 40.789 151.756 40.7901H158.137C159.045 40.789 159.915 40.4262 160.557 39.7812C161.199 39.1362 161.56 38.2618 161.561 37.3496C162.578 26.9329 162.204 21.3112 161.561 16.6187C161.56 15.7066 161.199 14.8321 160.557 14.1871C159.915 13.5421 159.045 13.1793 158.137 13.1782L151.756 13.1782Z" fill="#1924F2"/>
<path d="M150.958 13.1782C150.051 13.1793 149.18 13.5421 148.539 14.1871C147.897 14.832 147.536 15.7065 147.535 16.6186C147.168 24.7677 146.913 32.5393 147.535 37.3495C147.536 38.2617 147.897 39.1362 148.539 39.7812C149.18 40.4262 150.051 40.7891 150.958 40.7901H157.34C158.248 40.789 159.118 40.4262 159.76 39.7812C160.402 39.1362 160.763 38.2618 160.764 37.3496V16.6187C160.763 15.7066 160.402 14.8321 159.76 14.1871C159.118 13.5421 158.248 13.1793 157.34 13.1782L150.958 13.1782Z" fill="#3F3D56"/>
<path d="M167.388 43.3499C167.388 43.3499 173.424 43.1038 170.352 45.723C168.352 47.4274 163.851 59.293 159.173 60.7284C158.623 60.8971 158.043 60.949 157.471 60.8809C156.9 60.8127 156.348 60.626 155.852 60.3325C155.356 60.039 154.926 59.6451 154.589 59.1758C154.252 58.7066 154.016 58.1721 153.896 57.6063L149.656 37.7463L155.194 36.8997L158.569 52.6181L167.388 43.3499Z" fill="#A0616A"/>
<path d="M152.731 39.1968C154.894 39.1968 156.648 37.4344 156.648 35.2603C156.648 33.0862 154.894 31.3237 152.731 31.3237C150.568 31.3237 148.814 33.0862 148.814 35.2603C148.814 37.4344 150.568 39.1968 152.731 39.1968Z" fill="#A0616A"/>
<path d="M175.575 32.4976C179.164 35.2057 180.22 44.0863 177.965 47.9853C173.655 55.4387 165.158 61.1772 164.795 60.3803C164.299 59.2889 163.434 60.7544 163.463 61.2341C163.493 61.7139 161.856 61.5708 162.047 62.0785C162.237 62.5862 160.945 62.6965 160.384 62.9908C160.384 62.9908 155.249 63.0781 153.629 60.7231C152.009 58.3682 151.792 55.1139 151.792 55.1139L149.781 52.7358L160.444 46.4716L159.565 50.6998L164.884 44.4753L166.01 41.978L167.806 41.0563L168.401 39.1745L170.057 38.4221L176.607 30.7579L175.575 32.4976Z" fill="#3F3D56"/>
<path d="M205.039 105.451C205.486 105.154 205.863 104.762 206.144 104.303C206.425 103.844 206.602 103.329 206.663 102.793C206.724 102.258 206.667 101.716 206.497 101.205C206.327 100.694 206.047 100.226 205.678 99.8357L206.432 66.1605L199.811 67.1957L200.277 99.8585C199.665 100.525 199.318 101.395 199.301 102.302C199.285 103.209 199.6 104.09 200.186 104.78C200.773 105.469 201.591 105.918 202.486 106.042C203.38 106.165 204.288 105.955 205.039 105.451Z" fill="#A0616A"/>
<path d="M205.327 37.4558C205.327 37.4558 204.888 37.7894 207.14 41.2383C207.587 41.9223 207.889 44.6801 208.101 48.279C208.17 49.4514 208.834 50.2751 208.886 51.5835C208.93 52.6938 208.363 54.2758 208.397 55.4273C208.415 56.0414 208.87 56.5758 208.886 57.1903C208.893 57.4465 208.46 57.7842 208.466 58.0394C208.473 58.3147 208.479 58.5891 208.485 58.8627C208.64 65.7027 208.673 71.8804 208.827 71.776C209.154 71.5535 208.34 72.7035 208.747 72.8955C209.154 73.0875 208.4 74.0402 208.594 74.5339C208.831 75.1355 208.537 75.7992 208.351 76.4031C207.813 78.1468 207.698 79.6442 207.23 80.4725C207.785 80.7923 208.218 81.2885 208.461 81.8829C208.704 82.4773 208.744 83.1362 208.573 83.7556L199.241 82.0601C198.104 80.2284 198.268 78.3059 199.043 77.9709L198.813 72.0104L196.155 41.1731L203.944 37.6782L205.327 37.4558Z" fill="#3F3D56"/>
<path d="M147.409 18.4952C147.275 18.4952 147.166 18.5594 147.166 18.6383V19.7824C147.166 19.8613 147.275 19.9254 147.409 19.9254C147.543 19.9254 147.652 19.8613 147.652 19.7824V18.6383C147.652 18.5594 147.543 18.4952 147.409 18.4952Z" fill="#3F3D56"/>
<path d="M147.409 21.5272C147.275 21.5272 147.166 21.5914 147.166 21.6702V23.8871C147.166 23.9659 147.275 24.0301 147.409 24.0301C147.543 24.0301 147.652 23.9659 147.652 23.8871V21.6702C147.652 21.5914 147.543 21.5272 147.409 21.5272Z" fill="#3F3D56"/>
<path d="M160.958 21.9277C160.887 21.9359 160.821 21.9719 160.776 22.028C160.73 22.084 160.709 22.1557 160.715 22.2277V26.8766C160.708 26.9129 160.708 26.9504 160.717 26.9863C160.726 27.0223 160.742 27.0559 160.766 27.0846C160.789 27.1133 160.818 27.1365 160.852 27.1524C160.885 27.1683 160.921 27.1765 160.958 27.1765C160.995 27.1765 161.031 27.1683 161.065 27.1524C161.098 27.1365 161.127 27.1133 161.15 27.0846C161.174 27.0559 161.19 27.0223 161.199 26.9863C161.208 26.9504 161.208 26.9129 161.201 26.8766V22.2277C161.207 22.1557 161.186 22.084 161.14 22.028C161.095 21.9719 161.029 21.9359 160.958 21.9277Z" fill="#3F3D56"/>
<path d="M147.01 25.0742C146.876 25.0742 146.767 25.1384 146.767 25.2172V27.4341C146.767 27.5129 146.876 27.5771 147.01 27.5771C147.144 27.5771 147.253 27.5129 147.253 27.4341V25.2172C147.253 25.1384 147.144 25.0742 147.01 25.0742Z" fill="#3F3D56"/>
<path d="M189.607 23.7056C195.133 23.7056 199.612 19.2043 199.612 13.6516C199.612 8.09897 195.133 3.59766 189.607 3.59766C184.082 3.59766 179.603 8.09897 179.603 13.6516C179.603 19.2043 184.082 23.7056 189.607 23.7056Z" fill="#A0616A"/>
<path d="M200.778 18.2711C199.997 19.8419 199.253 20.8243 197.903 21.7024C197.834 21.5022 197.779 21.2977 197.737 21.0902C197.593 21.4131 197.453 21.7352 197.306 22.0588C196.452 22.5382 197.374 21.7986 195.975 22.3346L194.799 20.3059C194.477 19.3428 194.933 18.294 195.514 17.4606C196.095 16.6306 196.818 15.8697 197.133 14.9047C197.448 13.9398 197.169 12.6614 196.224 12.3023C195.294 11.9436 194.267 12.624 193.278 12.5058C192.137 12.3706 191.36 11.1707 191.299 10.0163C191.237 8.86195 191.705 7.75357 192.164 6.69721C190.782 7.69248 186.501 9.47561 184.171 9.5608C184.108 8.83027 183.772 8.15082 183.23 7.65924C183.325 8.32433 183.164 9.00072 182.78 9.55052C180.498 9.43294 180.069 12.7634 178.891 11.5574C179.259 11.3714 177.904 7.23248 178.271 7.04652C177.988 6.26729 177.706 5.49032 177.424 4.71562C177.948 4.8484 178.476 4.98386 179.004 5.11591C179.037 4.83264 179.123 4.55814 179.257 4.30679C179.633 4.09129 180.033 3.92148 180.449 3.80094C180.583 3.76495 180.72 3.72825 180.859 3.69835C181.065 3.65234 181.273 3.61826 181.482 3.59628C181.179 3.41951 180.873 3.24686 180.569 3.06671C180.532 3.04603 180.5 3.02463 180.463 3.00396C180.89 2.70891 181.337 2.44277 181.799 2.20732C183.748 1.18243 185.772 0.138104 187.969 0.010355C189.397 -0.0809963 190.812 0.328406 191.973 1.16871C192.974 1.89129 194.186 2.25778 195.418 2.21017C196.017 2.20558 196.609 2.33815 197.15 2.59781C196.902 2.8484 196.631 3.07477 196.341 3.27389C196.975 3.29046 197.606 3.30776 198.241 3.32774C198.952 3.97791 199.551 4.74128 200.015 5.58721C202.239 9.4054 202.747 14.3156 200.778 18.2711Z" fill="#2F2E41"/>
<path d="M168.651 174.905C168.575 174.403 168.381 173.927 168.085 173.515C167.789 173.104 167.399 172.769 166.949 172.54C162.719 170.365 158.287 168.614 153.715 167.314L149.437 172.982L152.599 167.001C140.897 163.846 128.597 163.671 116.81 166.491L118.455 171.05L115.768 166.752C110.461 168.093 105.322 170.035 100.45 172.54C100.001 172.771 99.6135 173.105 99.3178 173.515C99.0221 173.925 98.8271 174.4 98.7485 174.9C98.67 175.4 98.7102 175.912 98.8659 176.394C99.0216 176.875 99.2884 177.313 99.6445 177.672C101.494 177.786 102.715 179.513 103.934 181.983C104.401 182.446 105 182.753 105.647 182.861C106.294 182.969 106.959 182.874 107.55 182.588C115.72 178.683 124.653 176.657 133.699 176.657C142.746 176.657 151.679 178.683 159.848 182.588C160.44 182.874 161.104 182.97 161.752 182.861C162.399 182.753 162.997 182.446 163.464 181.983C164.197 179.986 165.707 178.805 167.754 177.672C168.112 177.316 168.38 176.879 168.536 176.397C168.692 175.916 168.731 175.405 168.651 174.905Z" fill="#1924F2"/>
<path d="M145.016 194.423C144.079 194.275 143.137 194.146 142.189 194.035L138.472 199.978L141.241 193.934C136.742 193.472 132.209 193.424 127.701 193.791L130.536 199.978L126.72 193.876C125.264 194.015 123.818 194.197 122.383 194.423C121.892 194.496 121.431 194.707 121.053 195.031C120.676 195.355 120.397 195.78 120.249 196.257C120.092 196.737 120.07 197.252 120.187 197.745C120.304 198.237 120.555 198.686 120.911 199.044C122.446 200.554 124.138 202.652 126.919 205.081C127.19 205.357 127.518 205.571 127.879 205.707C128.241 205.844 128.627 205.9 129.013 205.872C130.554 205.757 132.13 205.699 133.699 205.699C135.268 205.699 136.845 205.757 138.386 205.872C138.771 205.9 139.158 205.843 139.519 205.707C139.881 205.57 140.209 205.356 140.48 205.081C143.352 202.617 144.803 200.359 146.488 199.044C146.844 198.686 147.095 198.237 147.212 197.745C147.329 197.252 147.307 196.737 147.15 196.257C147.002 195.78 146.723 195.355 146.346 195.031C145.968 194.706 145.507 194.496 145.016 194.423Z" fill="#1924F2"/>
</g>
<defs>
<clipPath id="clip0_179_579">
<rect width="286" height="207" fill="white"/>
</clipPath>
</defs>
</svg>
